<svg width="200" height="200" viewBox="0 0 200 200" fill="none" xmlns="http://www.w3.org/2000/svg">
<rect width="200" height="200" rx="10" fill="#171717"/>
<path d="M20.08 160V47.86H53.2C62.08 47.86 69.22 49.18 74.62 51.82C80.14 54.46 84.16 58.18 86.68 62.98C89.2 67.78 90.46 73.42 90.46 79.9C90.46 84.1 89.5 88.3 87.58 92.5C85.78 96.7 83.14 100.36 79.66 103.48C76.3 106.6 72.28 108.76 67.6 109.96L93.52 160H79.48L54.64 110.5H32.86V160H20.08ZM32.86 99.34H54.64C62.68 99.34 68.5 97.6 72.1 94.12C75.7 90.52 77.5 85.78 77.5 79.9C77.5 76.18 76.72 72.82 75.16 69.82C73.6 66.7 71.14 64.24 67.78 62.44C64.42 60.64 60.04 59.74 54.64 59.74H32.86V99.34ZM151.3 161.8C145.18 161.8 139.48 160.72 134.2 158.56C128.92 156.28 124.24 152.8 120.16 148.12C116.2 143.44 113.08 137.5 110.8 130.3C108.52 123.1 107.38 114.52 107.38 104.56C107.38 95.8 108.22 88.18 109.9 81.7C111.58 75.1 113.86 69.58 116.74 65.14C119.62 60.7 122.92 57.16 126.64 54.52C130.36 51.88 134.26 49.96 138.34 48.76C142.42 47.56 146.5 46.96 150.58 46.96C158.74 46.96 165.7 49 171.46 53.08C177.22 57.04 181.54 62.38 184.42 69.1L173.62 74.14L172 74.86L171.46 73.6C171.82 72.64 171.82 71.8 171.46 71.08C171.1 70.24 170.44 68.98 169.48 67.3C166.48 63.22 163.36 60.52 160.12 59.2C157 57.76 153.7 57.04 150.22 57.04C145.54 57.04 141.28 58.12 137.44 60.28C133.72 62.32 130.48 65.38 127.72 69.46C125.08 73.42 123.04 78.28 121.6 84.04C120.28 89.8 119.62 96.34 119.62 103.66C119.62 110.74 120.4 117.16 121.96 122.92C123.64 128.68 125.86 133.66 128.62 137.86C131.5 142.06 134.8 145.3 138.52 147.58C142.36 149.86 146.44 151 150.76 151C153.76 151 156.64 150.46 159.4 149.38C162.28 148.3 164.92 146.74 167.32 144.7C169.72 142.54 171.76 140.08 173.44 137.32L182.8 143.44C179.2 149.44 174.88 154 169.84 157.12C164.8 160.24 158.62 161.8 151.3 161.8Z" fill="#F5F5F5"/>
</svg>
